<svg width="116" height="502" viewBox="0 0 116 502" fill="none" xmlns="http://www.w3.org/2000/svg">
<g clip-path="url(#clip0_1_379)">
<path d="M31.4873 156.141C31.4873 112.578 57.7582 105.835 72.3678 105.835L74.3988 105.835C88.8119 105.835 116 112.511 116 155.942L116 160.768C116 205.653 88.6807 210.875 74.5297 210.875L72.2368 210.875C57.8239 210.875 31.4873 205.653 31.4873 160.57L31.4873 156.141ZM52.5828 159.181C52.5828 177.096 65.2923 181.657 74.0712 181.657C83.1777 181.657 95.2977 177.162 95.2977 159.181L95.2977 157.595C95.2977 138.953 83.1777 135.119 74.0712 135.119C65.2923 135.119 52.5828 138.887 52.5828 157.595L52.5828 159.181Z" fill="#005944"/>
<path d="M31.8152 453.48C31.8152 413.684 50.6175 410.181 57.3656 410.181L58.0861 410.181L58.0861 440.654C55.3346 441.117 49.5694 442.374 49.5694 456.851L49.5694 457.116C49.5694 469.807 53.3035 472.717 57.2344 472.717C61.2962 472.717 64.1789 470.8 64.8997 457.249L65.7511 446.208C67.3235 420.096 76.43 410.644 89.7293 410.644L90.5809 410.644C104.273 410.644 115.738 418.246 115.738 452.489L115.738 456.456C115.738 495.656 101.587 500.348 91.1705 500.348L90.7119 500.348L90.7119 470.6C93.5945 469.742 98.508 468.42 98.508 455.132L98.508 454.669C98.508 442.441 95.8875 439.2 91.8912 439.2C87.4361 439.2 84.8158 442.111 84.357 453.745L83.8984 464.849C82.7193 494.002 73.6128 502 60.1826 502L59.1999 502C45.7695 502 31.7497 496.184 31.7497 457.249L31.7497 453.48L31.8152 453.48Z" fill="#005944"/>
<path d="M74.4008 279.557L113.84 314.395L113.84 283.06L79.7075 252.653L83.5728 248.819L88.6828 253.447C92.4826 256.884 98.2478 256.818 101.982 253.38L113.84 242.341L113.84 207.504L73.8113 244.985L33.6513 208.694L33.6513 240.887L68.2425 272.75L64.1153 276.914L59.0051 272.287C55.2054 268.848 49.4402 268.916 45.7058 272.352L33.6513 283.724L33.6513 316.51L74.4008 279.557Z" fill="#005944"/>
<path d="M113.84 77.0783L69.0942 59.4282C66.2118 58.3706 62.3464 57.2467 59.4637 57.2467L49.6367 57.2467L49.6367 51.2313L59.4637 51.2313C62.4773 51.2313 66.4082 50.0413 69.2907 48.9837L113.84 31.4658L113.84 0L33.6513 35.8287L33.6513 72.5829L113.84 106.561L113.84 77.0783Z" fill="#005944"/>
<path d="M113.84 383.211L70.1424 366.221C67.2599 365.097 63.0669 363.841 59.9877 363.841L48.9816 363.841L48.9816 357.824L59.9877 357.824C63.0014 357.824 66.9323 356.636 69.815 355.577L113.84 338.457L113.84 307.255L50.1607 336.142L26.1173 347.116L26.1173 321.6L1.48403 321.6L1.48403 347.579C1.48403 360.998 7.44591 367.61 20.614 373.293L113.84 412.36L113.84 383.211Z" fill="#005944"/>
</g>
<defs>
<clipPath id="clip0_1_379">
<rect width="502" height="116" fill="white" transform="translate(116) rotate(90)"/>
</clipPath>
</defs>
</svg>
