<svg width="193" height="45" viewBox="0 0 193 45" fill="none" xmlns="http://www.w3.org/2000/svg">
<g clip-path="url(#clip0_1_4)">
<path d="M60.0301 32.7851C43.2818 32.7851 40.6895 22.5938 40.6895 16.9263V16.1384C40.6895 10.5471 43.2563 0 59.9539 0H61.8091C79.0658 0 81.0736 10.598 81.0736 16.0876V16.9771C81.0736 22.5683 79.0658 32.7851 61.7329 32.7851H60.0301ZM61.1992 24.6015C68.0866 24.6015 69.8402 19.6711 69.8402 16.2655C69.8402 12.7328 68.112 8.03108 61.1992 8.03108H60.5892C53.4223 8.03108 51.9482 12.7328 51.9482 16.2655C51.9482 19.6711 53.3968 24.6015 60.5892 24.6015H61.1992Z" fill="#005944"/>
<path d="M174.346 32.6579C159.046 32.6579 157.699 25.3639 157.699 22.7461V22.4666H169.415C169.593 23.534 170.076 25.7705 175.642 25.7705H175.744C180.623 25.7705 181.742 24.3219 181.742 22.797C181.742 21.2213 181.005 20.103 175.795 19.8234L171.55 19.4931C161.511 18.8831 157.877 15.3504 157.877 10.1912V9.86085C157.877 4.54915 160.8 0.101562 173.965 0.101562H175.49C190.561 0.101562 192.365 5.59116 192.365 9.63211V9.81002H180.928C180.598 8.69176 180.09 6.78566 174.981 6.78566H174.803C170.102 6.78566 168.856 7.80225 168.856 9.35255C168.856 11.0808 169.975 12.0973 174.448 12.2753L178.717 12.4532C189.925 12.9106 193 16.4433 193 21.6533V22.0345C193 27.2446 190.764 32.6833 175.795 32.6833H174.346V32.6579Z" fill="#005944"/>
<path d="M107.479 16.1376L120.873 0.837891H108.826L97.1357 14.079L95.6616 12.5795L97.4406 10.5972C98.7622 9.12312 98.7368 6.88661 97.4152 5.43797L93.1709 0.837891H79.7773L94.1875 16.3663L80.2348 31.9456H92.6118L104.862 18.5266L106.463 20.1277L104.684 22.1101C103.362 23.5841 103.388 25.8206 104.709 27.2693L109.081 31.9456H121.686L107.479 16.1376Z" fill="#005944"/>
<path d="M29.6337 0.837891L22.8479 18.1962C22.4413 19.3144 22.0092 20.8139 22.0092 21.9322V25.7444H19.6965V21.9322C19.6965 20.7631 19.239 19.2382 18.8324 18.12L12.0974 0.837891H0L13.7748 31.9456H27.9054L40.9687 0.837891H29.6337Z" fill="#005944"/>
<path d="M147.33 0.837891L140.798 17.7896C140.366 18.9078 139.883 20.5344 139.883 21.7289V25.9985H137.57V21.7289C137.57 20.5598 137.113 19.0349 136.706 17.9166L130.124 0.837891H118.128L129.234 25.5411L133.453 34.8683H123.643V44.4243H133.631C138.79 44.4243 141.332 42.1115 143.517 37.0032L158.537 0.837891H147.33Z" fill="#005944"/>
</g>
<defs>
<clipPath id="clip0_1_4">
<rect width="193" height="45" fill="white"/>
</clipPath>
</defs>
</svg>
